<mxfile host="app.diagrams.net" modified="2023-04-30T12:54:06.078Z" agent="Mozilla/5.0 (Windows NT 10.0; Win64; x64) AppleWebKit/537.36 (KHTML, like Gecko) Chrome/112.0.0.0 Safari/537.36" etag="EPVn0HOw-x7OUub0r8uM" version="21.2.3" type="device">
  <diagram name="Страница 1" id="d11EDk8yPxdREGz2qx_L">
    <mxGraphModel dx="1114" dy="584" grid="1" gridSize="10" guides="1" tooltips="1" connect="1" arrows="1" fold="1" page="1" pageScale="1" pageWidth="827" pageHeight="1169" math="0" shadow="0">
      <root>
        <mxCell id="0" />
        <mxCell id="1" parent="0" />
        <mxCell id="vaONpJjk-V03wCj3WTm0-2" value="" style="rounded=1;whiteSpace=wrap;html=1;" vertex="1" parent="1">
          <mxGeometry x="134" y="90" width="486" height="630" as="geometry" />
        </mxCell>
        <mxCell id="vaONpJjk-V03wCj3WTm0-6" value="" style="edgeStyle=orthogonalEdgeStyle;rounded=0;orthogonalLoop=1;jettySize=auto;html=1;" edge="1" parent="1" source="vaONpJjk-V03wCj3WTm0-3" target="vaONpJjk-V03wCj3WTm0-4">
          <mxGeometry relative="1" as="geometry" />
        </mxCell>
        <mxCell id="vaONpJjk-V03wCj3WTm0-3" value="1" style="ellipse;whiteSpace=wrap;html=1;aspect=fixed;" vertex="1" parent="1">
          <mxGeometry x="390" y="100" width="30" height="30" as="geometry" />
        </mxCell>
        <mxCell id="vaONpJjk-V03wCj3WTm0-12" value="" style="edgeStyle=orthogonalEdgeStyle;rounded=0;orthogonalLoop=1;jettySize=auto;html=1;" edge="1" parent="1" source="vaONpJjk-V03wCj3WTm0-4" target="vaONpJjk-V03wCj3WTm0-11">
          <mxGeometry relative="1" as="geometry" />
        </mxCell>
        <mxCell id="vaONpJjk-V03wCj3WTm0-13" value="" style="edgeStyle=orthogonalEdgeStyle;rounded=0;orthogonalLoop=1;jettySize=auto;html=1;" edge="1" parent="1" source="vaONpJjk-V03wCj3WTm0-4" target="vaONpJjk-V03wCj3WTm0-8">
          <mxGeometry relative="1" as="geometry" />
        </mxCell>
        <mxCell id="vaONpJjk-V03wCj3WTm0-4" value="Условие" style="rhombus;whiteSpace=wrap;html=1;" vertex="1" parent="1">
          <mxGeometry x="365" y="150" width="80" height="80" as="geometry" />
        </mxCell>
        <mxCell id="vaONpJjk-V03wCj3WTm0-28" value="" style="edgeStyle=orthogonalEdgeStyle;rounded=0;orthogonalLoop=1;jettySize=auto;html=1;" edge="1" parent="1" source="vaONpJjk-V03wCj3WTm0-7" target="vaONpJjk-V03wCj3WTm0-24">
          <mxGeometry relative="1" as="geometry" />
        </mxCell>
        <mxCell id="vaONpJjk-V03wCj3WTm0-29" value="" style="edgeStyle=orthogonalEdgeStyle;rounded=0;orthogonalLoop=1;jettySize=auto;html=1;" edge="1" parent="1" source="vaONpJjk-V03wCj3WTm0-7" target="vaONpJjk-V03wCj3WTm0-25">
          <mxGeometry relative="1" as="geometry" />
        </mxCell>
        <mxCell id="vaONpJjk-V03wCj3WTm0-7" value="Условие" style="rhombus;whiteSpace=wrap;html=1;" vertex="1" parent="1">
          <mxGeometry x="360" y="400" width="80" height="80" as="geometry" />
        </mxCell>
        <mxCell id="vaONpJjk-V03wCj3WTm0-8" value="Что при да" style="rounded=0;whiteSpace=wrap;html=1;" vertex="1" parent="1">
          <mxGeometry x="345" y="280" width="120" height="60" as="geometry" />
        </mxCell>
        <mxCell id="vaONpJjk-V03wCj3WTm0-11" value="Что при нет" style="rounded=0;whiteSpace=wrap;html=1;" vertex="1" parent="1">
          <mxGeometry x="190" y="160" width="120" height="60" as="geometry" />
        </mxCell>
        <mxCell id="vaONpJjk-V03wCj3WTm0-16" value="Да" style="text;html=1;strokeColor=none;fillColor=none;align=center;verticalAlign=middle;whiteSpace=wrap;rounded=0;" vertex="1" parent="1">
          <mxGeometry x="390" y="240" width="60" height="30" as="geometry" />
        </mxCell>
        <mxCell id="vaONpJjk-V03wCj3WTm0-17" value="Нет" style="text;html=1;strokeColor=none;fillColor=none;align=center;verticalAlign=middle;whiteSpace=wrap;rounded=0;" vertex="1" parent="1">
          <mxGeometry x="310" y="160" width="60" height="30" as="geometry" />
        </mxCell>
        <mxCell id="vaONpJjk-V03wCj3WTm0-18" value="" style="endArrow=classic;html=1;rounded=0;exitX=1;exitY=0.5;exitDx=0;exitDy=0;entryX=0.5;entryY=0;entryDx=0;entryDy=0;" edge="1" parent="1" source="vaONpJjk-V03wCj3WTm0-4" target="vaONpJjk-V03wCj3WTm0-7">
          <mxGeometry width="50" height="50" relative="1" as="geometry">
            <mxPoint x="390" y="430" as="sourcePoint" />
            <mxPoint x="440" y="380" as="targetPoint" />
            <Array as="points">
              <mxPoint x="540" y="190" />
              <mxPoint x="540" y="370" />
              <mxPoint x="400" y="370" />
            </Array>
          </mxGeometry>
        </mxCell>
        <mxCell id="vaONpJjk-V03wCj3WTm0-24" value="Что при да" style="rounded=0;whiteSpace=wrap;html=1;" vertex="1" parent="1">
          <mxGeometry x="340" y="540" width="120" height="60" as="geometry" />
        </mxCell>
        <mxCell id="vaONpJjk-V03wCj3WTm0-25" value="Что при нет" style="rounded=0;whiteSpace=wrap;html=1;" vertex="1" parent="1">
          <mxGeometry x="170" y="410" width="120" height="60" as="geometry" />
        </mxCell>
        <mxCell id="vaONpJjk-V03wCj3WTm0-26" value="Да" style="text;html=1;strokeColor=none;fillColor=none;align=center;verticalAlign=middle;whiteSpace=wrap;rounded=0;" vertex="1" parent="1">
          <mxGeometry x="390" y="490" width="60" height="30" as="geometry" />
        </mxCell>
        <mxCell id="vaONpJjk-V03wCj3WTm0-27" value="Нет" style="text;html=1;strokeColor=none;fillColor=none;align=center;verticalAlign=middle;whiteSpace=wrap;rounded=0;" vertex="1" parent="1">
          <mxGeometry x="300" y="410" width="60" height="30" as="geometry" />
        </mxCell>
      </root>
    </mxGraphModel>
  </diagram>
</mxfile>
